<svg width="26" height="26" viewBox="0 0 26 26" fill="none" xmlns="http://www.w3.org/2000/svg">
<path d="M20.9297 8.9375C20.9297 9.13281 20.9297 9.28906 20.9297 9.48438C20.9297 14.9141 16.8281 21.125 9.28906 21.125C6.94531 21.125 4.79688 20.4609 3 19.2891C3.3125 19.3281 3.625 19.3672 3.97656 19.3672C5.89062 19.3672 7.64844 18.7031 9.05469 17.6094C7.25781 17.5703 5.73438 16.3984 5.22656 14.7578C5.5 14.7969 5.73438 14.8359 6.00781 14.8359C6.35938 14.8359 6.75 14.7578 7.0625 14.6797C5.1875 14.2891 3.78125 12.6484 3.78125 10.6562V10.6172C4.32812 10.9297 4.99219 11.0859 5.65625 11.125C4.52344 10.3828 3.82031 9.13281 3.82031 7.72656C3.82031 6.94531 4.01562 6.24219 4.36719 5.65625C6.39844 8.11719 9.44531 9.75781 12.8438 9.95312C12.7656 9.64062 12.7266 9.32812 12.7266 9.01562C12.7266 6.75 14.5625 4.91406 16.8281 4.91406C18 4.91406 19.0547 5.38281 19.8359 6.20312C20.7344 6.00781 21.6328 5.65625 22.4141 5.1875C22.1016 6.16406 21.4766 6.94531 20.6172 7.45312C21.4375 7.375 22.2578 7.14062 22.9609 6.82812C22.4141 7.64844 21.7109 8.35156 20.9297 8.9375Z" fill="#1E2832"/>
</svg>
